<svg width="100" height="100" viewBox="0 0 100 100" fill="none" xmlns="http://www.w3.org/2000/svg">
<path d="M68.75 54.6875H31.25C30.3906 54.6875 29.6875 53.9844 29.6875 53.125V46.875C29.6875 46.0156 30.3906 45.3125 31.25 45.3125H68.75C69.6094 45.3125 70.3125 46.0156 70.3125 46.875V53.125C70.3125 53.9844 69.6094 54.6875 68.75 54.6875ZM73.8281 70.7031V29.2969C73.8281 26.9336 75.7617 25 78.125 25C80.4883 25 82.4219 26.9336 82.4219 29.2969V70.7031C82.4219 73.0664 80.4883 75 78.125 75C75.7617 75 73.8281 73.0664 73.8281 70.7031ZM89.8438 37.5H87.5C86.6406 37.5 85.9375 38.2031 85.9375 39.0625V60.9375C85.9375 61.7969 86.6406 62.5 87.5 62.5H89.8438C91.9922 62.5 93.75 60.7422 93.75 58.5938V41.4062C93.75 39.2578 91.9922 37.5 89.8438 37.5ZM26.1719 70.7031V29.2969C26.1719 26.9336 24.2383 25 21.875 25C19.5117 25 17.5781 26.9336 17.5781 29.2969V70.7031C17.5781 73.0664 19.5117 75 21.875 75C24.2383 75 26.1719 73.0664 26.1719 70.7031ZM12.5 37.5H10.1562C8.00781 37.5 6.25 39.2578 6.25 41.4062V58.5938C6.25 60.7422 8.00781 62.5 10.1562 62.5H12.5C13.3594 62.5 14.0625 61.7969 14.0625 60.9375V39.0625C14.0625 38.2031 13.3594 37.5 12.5 37.5Z" fill="black"/>
</svg>
