<svg width="100" height="100" viewBox="0 0 100 100" fill="none" xmlns="http://www.w3.org/2000/svg">
<path d="M46.875 26.5625C47.7379 26.5625 48.4375 25.8629 48.4375 25C48.4375 24.1371 47.7379 23.4375 46.875 23.4375C46.0121 23.4375 45.3125 24.1371 45.3125 25C45.3125 25.8629 46.0121 26.5625 46.875 26.5625Z" fill="black"/>
<path d="M94.6656 38.7937C97.0984 36.3625 98.4375 33.1281 98.4375 29.6875C98.4375 26.2469 97.0984 23.0125 94.6656 20.5812C92.4781 18.3937 89.5672 17.1875 86.4734 17.1875C84.4547 17.1875 82.8125 15.5453 82.8125 13.5266V11.3062C82.8125 9.80313 82.4562 8.29531 81.7844 6.94844C80.1234 3.62656 76.7844 1.5625 73.0687 1.5625C68.8953 1.5625 64.9688 3.78594 62.8219 7.36406L62.4469 7.98906C60.0016 5.87812 56.8922 4.6875 53.5922 4.6875H51.2937C48.5875 4.6875 46 5.575 43.8766 7.2C42.5797 6.40625 41.0391 6.07656 39.5063 6.34844C36.9859 6.79063 34.9156 8.85938 34.4734 11.3797C34.15 13.2266 34.6469 15.0984 35.8375 16.5172C36.7719 17.6281 38.05 18.3516 39.4484 18.6203C37.2594 22.4859 36.0813 25.8859 36.0219 26.0563L35.7062 26.9781L39.0625 30.3344V33.7281C39.0625 35.5719 39.7797 37.3031 41.0828 38.6063C42.3859 39.9094 44.1172 40.625 45.9594 40.625C46.8047 40.625 47.6328 40.4969 48.4375 40.2859V41.7406L44.0406 48.7766L32.1844 52.7281L28.3078 42.3875L29.6828 40.325C30.7078 38.7859 31.25 36.9953 31.25 35.1453C31.25 34.5297 31.1891 33.9125 31.0688 33.3141L29.9094 27.5109C29.6172 26.0562 28.3281 25 26.8453 25C26.5063 25 26.175 25.0359 25.8531 25.1L25.7828 24.8188C25.1203 22.1656 22.7469 20.3125 20.0125 20.3125C16.7312 20.3125 14.0625 22.9813 14.0625 26.2625V31.8672C14.0625 35.7469 15.1672 39.5094 17.2625 42.7687L19.7266 57.5531C20.1859 60.3 21.6641 62.7328 23.8906 64.4031C25.7687 65.8125 28.0469 66.5578 30.3625 66.5578C31.0656 66.5578 31.7719 66.4891 32.4734 66.3484L42.1766 64.4078L45.3125 70.6813V79.6875H27.5922L21.5797 65.6578L15.725 86.1484L12.1578 71.875H1.5625V75H9.71719L15.525 98.2281L22.1703 74.9672L25.5328 82.8125H45.3125V83.6438L40.2969 87.8234C37.5891 90.0781 35.5703 93.0375 34.4562 96.3812L33.7687 98.4375H71.1484L72.0219 97.1281C73.9703 94.2062 75 90.8047 75 87.2922C75 84.0781 74.125 80.9234 72.4734 78.1672L71.8234 77.0875C70.8344 75.4375 70.3125 73.55 70.3125 71.6297C70.3125 69.8312 70.5094 68.0297 70.9 66.2766L72.9172 57.2016L78.4 59.0297L82.7438 74.9547L81.5375 78.5719C81.3469 79.1391 81.25 79.7344 81.25 80.3375C81.25 82.4594 82.4297 84.3688 84.3281 85.3172L84.375 87.5C84.375 90.9469 87.1781 93.75 90.625 93.75C92.3484 93.75 93.75 92.3484 93.75 90.625C93.75 82.2359 93.0109 73.7969 91.5531 65.5438L89.7266 55.1922C89.2312 52.3828 88.0281 49.7203 86.2469 47.4953C83.5641 44.1453 79.7531 41.9406 75.5141 41.2875L62.0578 39.2172L59.7344 33.4094L60.925 32.6156C62.8031 31.3641 63.9453 29.3047 64.0437 27.0641L64.9328 25.7297C66.4078 23.5187 67.1875 20.9438 67.1875 18.2844C67.1875 17.8906 67.1687 17.4984 67.1344 17.1094C67.7875 17.2078 68.4234 17.4578 68.9656 17.8797C69.8219 18.5469 70.3125 19.5031 70.3125 20.5047V21.5063C70.3125 23.0094 70.6688 24.5172 71.3406 25.8641C73.0016 29.1859 76.3406 31.25 80.0563 31.25H83.9016C85.6297 31.25 87.2359 32.1094 88.1953 33.5484C88.7641 34.3984 89.0625 35.3875 89.0625 36.4109V44.3969L94.6656 38.7937ZM31.8594 63.2844C29.7234 63.7078 27.5047 63.2062 25.7672 61.9016C24.1859 60.7172 23.1359 58.9891 22.8094 57.0375L20.2375 41.6L20.0516 41.3203C18.1781 38.5109 17.1875 35.2422 17.1875 31.8672V26.2625C17.1875 24.7047 18.4547 23.4375 20.0125 23.4375C21.3109 23.4375 22.4375 24.3172 22.7531 25.5781L23.0578 26.7922C22.3297 27.6562 21.875 28.7547 21.875 29.9688V34.375H25V29.9688C25 28.9516 25.8266 28.125 26.8453 28.125L28.0047 33.9281C28.0844 34.325 28.125 34.7344 28.125 35.1453C28.125 36.3766 27.7641 37.5688 27.0813 38.5938L24.8188 41.9875L30.3172 56.6469L41.7109 52.8484C41.0062 54.5094 40.625 56.2953 40.625 58.1156C40.625 59.2375 40.7781 60.3578 41.0547 61.4453L31.8594 63.2844ZM67.2531 70.4234C67.2359 70.8266 67.1875 71.2266 67.1875 71.6297C67.1875 74.1156 67.8641 76.5578 69.1437 78.6937L69.7937 79.775C69.9156 79.9766 70.0031 80.1953 70.1141 80.4031C61.1797 82.2719 52.0047 82.6922 48.4375 82.7844V71.7672L67.2531 70.4234ZM69.4766 95.3125H38.2703C39.2406 93.3625 40.6094 91.6297 42.2969 90.225L47.4453 85.9328C49.9859 85.9016 60.7469 85.6297 71.325 83.3375C71.6859 84.6187 71.875 85.9484 71.875 87.2922C71.875 90.1531 71.0469 92.9234 69.4766 95.3125ZM65.625 42.9266L75.0375 44.375C78.5016 44.9078 81.6156 46.7094 83.8063 49.4469C85.2609 51.2641 86.2438 53.4391 86.6484 55.7344L88.475 66.0859C89.9016 74.1609 90.625 82.4172 90.625 90.625C88.9016 90.625 87.5 89.2234 87.5 87.5V83.4094L85.725 82.5219C84.8922 82.1047 84.375 81.2688 84.375 80.3375C84.375 80.0734 84.4156 79.8156 84.5 79.5641L86.0062 75.0437L81.4156 58.2062C81.1391 57.1969 80.3828 56.3953 79.3891 56.0641L71.1125 53.3047C68.4953 52.4328 66.5344 50.3156 65.8656 47.6391C65.7062 47.0047 65.625 46.3516 65.625 45.6953V42.9266ZM62.8344 48.4C63.7469 52.0531 66.3984 54.9484 69.9375 56.1969L67.8484 65.6C67.7266 66.15 67.6609 66.7109 67.5734 67.2672L47.8063 68.6797L44.8484 62.7625C44.1297 61.3281 43.75 59.7203 43.75 58.1156C43.75 56.1672 44.2969 54.2625 45.3297 52.6094L48.4375 47.6344V50.4016C48.4375 52.6766 49.7016 54.7219 51.7359 55.7406C52.4031 56.0734 53.15 56.25 53.8953 56.25C55.9781 56.25 57.8203 54.9234 58.4766 52.9484L62.0031 42.3687L62.5 42.4469V45.6953C62.5 46.6063 62.6125 47.5172 62.8344 48.4ZM59.1906 30.0156L55.8922 32.2156L59.275 40.675L55.5125 51.9609C55.1984 52.9047 54.0281 53.3906 53.1359 52.9453C52.1656 52.4609 51.5625 51.4859 51.5625 50.4016V38.8563L53.9922 37.2359L52.2594 34.6359L49.6328 36.3875C48.5406 37.1156 47.2703 37.5 45.9594 37.5C44.9516 37.5 44.0047 37.1078 43.2922 36.3937C42.5797 35.6828 42.1875 34.7359 42.1875 33.7281V29.0406L39.3156 26.1687C39.8797 24.7219 41.1516 21.7391 43.0094 18.75H46.7766C49.9906 18.75 52.8375 20.6781 54.0313 23.6609L55.6797 27.7813L57.9469 25.5125C58.2734 25.1875 58.725 25 59.1859 25C60.1516 25 60.9375 25.7859 60.9375 26.7516C60.9375 28.0656 60.2844 29.2859 59.1906 30.0156ZM62.6859 23.3703C61.7984 22.4516 60.5609 21.875 59.1859 21.875C58.3906 21.875 57.6063 22.0734 56.9094 22.4406C55.225 18.2984 51.2562 15.625 46.7781 15.625H40.625C39.6984 15.625 38.8266 15.2172 38.2313 14.5078C37.625 13.7875 37.3844 12.8688 37.5516 11.9203C37.7672 10.6906 38.8172 9.64219 40.0453 9.42656C40.9953 9.25938 41.9125 9.5 42.6328 10.1062C43.3422 10.7016 43.75 11.575 43.75 12.5H46.875C46.875 11.4281 46.575 10.4078 46.0703 9.49531C47.5953 8.41875 49.3984 7.8125 51.2937 7.8125H53.5922C56.7906 7.8125 59.7703 9.24531 61.7688 11.7437C63.2484 13.5906 64.0625 15.9141 64.0625 18.2844C64.0625 20.0828 63.5719 21.8188 62.6859 23.3703ZM83.9016 28.125H80.0563C77.5328 28.125 75.2641 26.7234 74.1359 24.4672C73.6781 23.5516 73.4375 22.5281 73.4375 21.5063V20.5047C73.4375 18.5344 72.5078 16.6797 70.8891 15.4156C69.6125 14.4187 68.0328 13.9016 66.4625 13.9266C66.0375 12.6687 65.425 11.4797 64.65 10.3938L65.5016 8.97344C67.0875 6.32969 69.9859 4.6875 73.0687 4.6875C75.5922 4.6875 77.8609 6.08906 78.9891 8.34531C79.4469 9.26094 79.6875 10.2844 79.6875 11.3062V13.5266C79.6875 17.2687 82.7312 20.3125 86.4734 20.3125C88.7328 20.3125 90.8594 21.1922 92.4563 22.7906C94.2984 24.6328 95.3125 27.0812 95.3125 29.6875C95.3125 32.2938 94.2984 34.7422 92.4563 36.5844L92.1875 36.8531V36.4109C92.1875 34.7687 91.7063 33.1797 90.7953 31.8156C89.2562 29.5047 86.6797 28.125 83.9016 28.125Z" fill="black"/>
<path d="M54.6875 79.6875C55.5504 79.6875 56.25 78.9879 56.25 78.125C56.25 77.2621 55.5504 76.5625 54.6875 76.5625C53.8246 76.5625 53.125 77.2621 53.125 78.125C53.125 78.9879 53.8246 79.6875 54.6875 79.6875Z" fill="black"/>
</svg>
