<svg width="56" height="81" viewBox="0 0 56 81" fill="none" xmlns="http://www.w3.org/2000/svg">
<path d="M2.14002 65.1399C2.51822 66.3111 2.82873 67.5031 3.07002 68.7099C2.91002 70.0899 2.91002 78.5299 2.91002 79.4899C2.91002 79.8878 3.06805 80.2693 3.34936 80.5506C3.63066 80.8319 4.01219 80.9899 4.41002 80.9899C4.80784 80.9899 5.18937 80.8319 5.47068 80.5506C5.75198 80.2693 5.91002 79.8878 5.91002 79.4899C5.91002 75.7899 5.91002 69.9599 6.05002 69.0399C5.98312 67.6274 5.69634 66.234 5.20002 64.9099C5.5193 65.1906 5.85309 65.4543 6.20002 65.6999C6.91581 66.2803 7.79125 66.6291 8.71002 66.6999C9.17382 66.6827 9.62238 66.5297 10 66.2599C10.69 65.7999 12.22 64.5599 14.16 62.9899C16.82 60.8399 21.77 56.8499 22.81 56.4599C24.6873 56.0964 26.5837 55.8393 28.49 55.6899C31.13 55.3999 33.24 55.1499 34.91 54.8999C34.7031 57.1273 34.7804 59.372 35.14 61.5799C35.2167 62.3113 35.5429 62.9939 36.0638 63.5129C36.5847 64.032 37.2684 64.3558 38 64.4299H38.25C40.52 64.4299 42.91 62.1599 43.69 59.9999C44.56 57.5799 42.2 55.1599 40.01 53.5199C40.0703 53.4815 40.1271 53.438 40.18 53.3899H40.24C41.7551 51.7385 43.1455 49.977 44.4 48.1199C43.86 52.3999 43.75 54.2599 44.78 55.4899C45.2101 55.886 45.72 56.1855 46.2753 56.3683C46.8307 56.5511 47.4188 56.6131 48 56.5499C48.382 56.556 48.7603 56.4754 49.1067 56.3144C49.4531 56.1533 49.7585 55.9159 50 55.6199C52.4 52.9999 55.61 41.8999 55.32 39.3899C55.25 38.8099 55.22 37.6199 55.18 36.2499C55.18 35.5899 55.18 34.9799 55.11 34.3899V34.2999C54.88 28.2999 54.46 26.0099 52.99 25.2999L50.54 23.9999C51.1733 23.7068 51.7623 23.3265 52.29 22.8699C53.2546 22.0294 54.0231 20.9876 54.5415 19.8179C55.0598 18.6482 55.3153 17.3791 55.29 16.0999C55.1 10.6399 51.5 9.40993 48.39 8.94993C44.53 8.37993 42.09 10.6399 41.12 15.6699C40.8841 16.7917 40.7568 17.9337 40.74 19.0799L36.2 16.8099C32.84 12.3599 30.2 9.42993 28.28 8.03993C29.58 6.42993 30.86 4.85993 32.04 3.48993C32.1713 3.33957 32.2718 3.16481 32.3355 2.97564C32.3993 2.78647 32.4252 2.58658 32.4118 2.3874C32.3983 2.18822 32.3457 1.99364 32.2571 1.81477C32.1684 1.63591 32.0454 1.47625 31.895 1.34493C31.7447 1.21361 31.5699 1.11319 31.3807 1.04941C31.1916 0.985623 30.9917 0.959724 30.7925 0.973188C30.5933 0.986653 30.3987 1.03922 30.2199 1.12788C30.041 1.21654 29.8813 1.33957 29.75 1.48993C27.57 4.05993 16.64 17.0699 16.16 21.1899C15.75 24.7899 12.24 27.3399 10.76 28.2699C8.39995 29.9357 6.14252 31.7423 4.00002 33.6799C3.71606 33.9393 3.54097 34.2966 3.51002 34.6799C3.51002 34.6799 3.06002 39.6799 2.51002 42.3899C1.96002 45.0999 3.07002 47.7499 3.67002 49.0199C2.93002 50.8599 0.980018 55.8099 0.670018 57.8299C0.670018 57.8999 0.670018 57.9999 0.670018 58.0799V58.1499C0.590018 59.6299 1.21002 61.9099 2.14002 65.1399ZM40.87 58.9999C40.33 60.4899 38.67 61.5499 38.25 61.4699C38.1545 61.3302 38.096 61.1685 38.08 60.9999C37.7925 59.2452 37.722 57.4618 37.87 55.6899C39.77 57.0599 41 58.4999 40.87 58.9999ZM44.11 16.2899C44.84 12.4899 46.17 11.8999 47.25 11.8999C47.5021 11.9154 47.7527 11.9488 48 11.9999C50.85 12.4199 52.22 13.1699 52.33 16.2899C52.3317 17.121 52.1539 17.9426 51.8087 18.6985C51.4636 19.4545 50.9591 20.127 50.33 20.6699C49.8595 21.1022 49.294 21.4178 48.6791 21.5915C48.0642 21.7652 47.4172 21.7921 46.79 21.6699C44.7 21.2699 44.2 20.7499 43.99 20.3399C43.58 19.4299 43.84 17.6999 44.11 16.2799V16.2899ZM6.69002 49.5099C6.77401 49.2992 6.81038 49.0724 6.79656 48.846C6.78273 48.6195 6.71903 48.3989 6.61002 48.1999C6.15002 47.3799 5.04002 44.8499 5.43002 42.9999C5.43002 42.8799 5.48002 42.7499 5.50002 42.6299C7.93002 46.7299 9.30002 48.0499 10.81 47.8999C11.67 47.8099 13.31 47.1099 16.87 45.5299C18.71 44.7099 21.45 43.5299 22.23 43.2999C22.9 43.4199 24.9 43.8099 27.13 44.2999C23.46 45.8299 18.83 47.7799 17.96 48.2999C16.1947 49.6035 14.5238 51.0304 12.96 52.5699C11.45 53.9499 9.27002 55.9399 8.35002 56.6399C7.01402 56.2874 5.64815 56.0597 4.27002 55.9599C4.94002 53.8999 6.00002 51.2899 6.69002 49.5099ZM36.91 38.3799C38.91 40.6499 39.25 44.9699 37.91 51.2299C37.3859 51.3978 36.8515 51.5314 36.31 51.6299H36.23C34.62 51.9399 32.4 52.2199 30.44 52.4399L29.04 46.6999L32.77 45.1499C33.0705 45.0322 33.3246 44.8201 33.4941 44.5455C33.6637 44.2709 33.7395 43.9487 33.7102 43.6273C33.6808 43.3059 33.548 43.0028 33.3315 42.7634C33.1151 42.524 32.8268 42.3614 32.51 42.2999L29.14 41.6099L30.41 36.9999C32.47 37.3799 34.76 37.8799 36.91 38.3799ZM26.22 40.9999C24.47 40.6499 22.93 40.3499 22.5 40.2899C21.64 40.1699 20.34 40.6799 15.65 42.7699C14.01 43.4999 11.65 44.5599 10.74 44.8399C10.28 44.4699 9.39002 43.3499 7.68002 40.3899L8.91002 40.5299C9.93174 40.6915 10.9658 40.7618 12 40.7399C12.89 40.6499 14.62 39.9399 18.34 38.3499C20.2062 37.5009 22.1155 36.7498 24.06 36.0999C25.1989 36.0814 26.3361 36.1921 27.45 36.4299L26.22 40.9999ZM21.77 53.6499C20.37 54.1599 16.96 56.8799 12.28 60.6499C10.72 61.9099 9.28002 63.0999 8.54002 63.6499C7.42002 63.2899 4.90002 60.4999 3.99002 58.8999C5.37813 58.9956 6.75235 59.237 8.09002 59.6199H8.21002C9.21002 59.8799 9.63002 59.6199 15 54.7099C16.66 53.1999 18.92 51.1399 19.42 50.8399C19.92 50.5399 22.94 49.2699 26.27 47.8399L27.46 52.7399C25.5404 52.8768 23.6365 53.1813 21.77 53.6499ZM47.77 53.5399C47.5313 53.5289 47.2939 53.4988 47.06 53.4499C46.83 52.7199 47.2 49.8099 47.38 48.3799C47.6837 46.1164 48.1482 43.8774 48.77 41.6799C49.086 40.6068 49.3332 39.5146 49.51 38.4099C49.5708 37.8148 49.5708 37.215 49.51 36.6199C50.26 36.5099 51.24 36.3399 52.13 36.1699V36.3399C52.13 37.8399 52.21 39.0199 52.29 39.7399C52.57 41.6999 49.35 51.9399 47.8 53.5399H47.77ZM52.03 33.1299C50.9 33.3499 49.79 33.5499 49.12 33.6499C48.8 31.9699 48.43 30.5199 48.35 30.2299C48.2995 30.0395 48.2119 29.8609 48.0923 29.7043C47.9727 29.5478 47.8235 29.4163 47.6531 29.3174C47.4827 29.2185 47.2945 29.1541 47.0992 29.128C46.9039 29.1018 46.7054 29.1144 46.515 29.1649C46.3246 29.2155 46.146 29.3031 45.9894 29.4226C45.8329 29.5422 45.7014 29.6915 45.6025 29.8619C45.5036 30.0323 45.4392 30.2205 45.4131 30.4157C45.3869 30.611 45.3995 30.8095 45.45 30.9999C45.97 32.9999 46.72 36.6099 46.54 37.9999C46.4081 38.8759 46.2279 39.7439 46 40.5999C45.9196 40.6739 45.849 40.7579 45.79 40.8499C44.65 42.5399 43.08 44.8499 41.65 46.7999C42.01 42.3999 41.3 39.0999 39.54 36.7999C42.71 30.4799 41.93 28.1299 40.67 27.2799L40.1 26.9099C39.1 26.2899 37.55 25.2499 35.86 23.9699L37.65 20.8699L51.42 27.8699C51.8393 29.592 52.0541 31.3575 52.06 33.1299H52.03ZM34 18.8899C34.1417 19.0704 34.3186 19.2201 34.52 19.3299L34.95 19.5399L33.48 22.0799C31.8239 20.735 30.4159 19.1104 29.32 17.2799L28.84 16.3799C26.98 12.9099 26.31 11.4699 26.57 10.4499C28.15 11.6599 31.44 15.4699 34 18.8899ZM12.34 30.8899C14.64 29.4499 18.59 26.3199 19.13 21.5999C19.27 20.3699 21.37 17.1499 24.13 13.4899C24.7459 14.971 25.4505 16.4137 26.24 17.8099L26.72 18.7099C29.22 23.4199 35.95 27.8099 38.49 29.4599L38.84 29.6899C38.93 30.5199 38.12 32.9599 36.97 35.3199C33.27 34.4699 25.48 32.7799 23.48 33.2099C21.3367 33.8709 19.2417 34.6795 17.21 35.6299C15.4275 36.4493 13.6014 37.1704 11.74 37.7899C10.9233 37.7737 10.1084 37.7069 9.30002 37.5899C8.30502 37.4547 7.30367 37.3713 6.30002 37.3399C6.38002 36.6199 6.44002 35.9799 6.48002 35.5499C8.33846 33.8706 10.2989 32.3076 12.35 30.8699L12.34 30.8899Z" fill="black"/>
</svg>
