<svg width="35" height="36" viewBox="0 0 35 36" fill="none" xmlns="http://www.w3.org/2000/svg">
<path d="M17.5078 9.01562C12.5391 9.01562 8.53124 13.0234 8.53124 17.9922C8.53124 22.9609 12.5391 26.9687 17.5078 26.9687C22.4765 26.9687 26.4844 22.9609 26.4844 17.9922C26.4844 13.0234 22.4765 9.01562 17.5078 9.01562ZM17.5078 23.8281C14.2969 23.8281 11.6719 21.2109 11.6719 17.9922C11.6719 14.7734 14.289 12.1562 17.5078 12.1562C20.7265 12.1562 23.3437 14.7734 23.3437 17.9922C23.3437 21.2109 20.7187 23.8281 17.5078 23.8281ZM28.9453 8.64843C28.9453 9.8125 28.0078 10.7422 26.8515 10.7422C25.6875 10.7422 24.7578 9.80468 24.7578 8.64843C24.7578 7.49218 25.6953 6.55468 26.8515 6.55468C28.0078 6.55468 28.9453 7.49218 28.9453 8.64843ZM34.8906 10.7734C34.7578 7.96875 34.1172 5.48437 32.0625 3.4375C30.0156 1.39062 27.5312 0.75 24.7265 0.609375C21.8359 0.445313 13.1719 0.445313 10.2812 0.609375C7.48437 0.742187 5 1.38281 2.94531 3.42969C0.890624 5.47656 0.257812 7.96093 0.117187 10.7656C-0.046875 13.6562 -0.046875 22.3203 0.117187 25.2109C0.25 28.0156 0.890624 30.5 2.94531 32.5469C5 34.5937 7.47656 35.2344 10.2812 35.375C13.1719 35.539 21.8359 35.539 24.7265 35.375C27.5312 35.2422 30.0156 34.6016 32.0625 32.5469C34.1093 30.5 34.75 28.0156 34.8906 25.2109C35.0547 22.3203 35.0547 13.6641 34.8906 10.7734ZM31.1562 28.3125C30.5468 29.8437 29.3672 31.0234 27.8281 31.6406C25.5234 32.5547 20.0547 32.3437 17.5078 32.3437C14.9609 32.3437 9.48437 32.5469 7.18749 31.6406C5.65624 31.0312 4.47656 29.8516 3.85937 28.3125C2.94531 26.0078 3.15625 20.5391 3.15625 17.9922C3.15625 15.4453 2.95312 9.96875 3.85937 7.67187C4.46875 6.14062 5.64843 4.96094 7.18749 4.34375C9.49218 3.42969 14.9609 3.64062 17.5078 3.64062C20.0547 3.64062 25.5312 3.4375 27.8281 4.34375C29.3593 4.95312 30.539 6.13281 31.1562 7.67187C32.0703 9.97656 31.8593 15.4453 31.8593 17.9922C31.8593 20.5391 32.0703 26.0156 31.1562 28.3125Z" fill="white"/>
</svg>
