<svg width="100" height="100" viewBox="0 0 100 100" fill="none" xmlns="http://www.w3.org/2000/svg">
<g clip-path="url(#clip0)">
<path d="M40.8543 80.9172C39.4573 80.6741 38.6054 81.2232 38.2749 81.5536C37.8541 81.9745 37.5534 82.5156 37.9142 84.0789C38.2749 85.6422 40.0787 85.7624 42.4838 85.5219C43.9713 85.373 44.3077 84.1662 43.8366 83.0394C43.6697 83.0293 43.5025 83.0113 43.3383 82.9774C42.1798 82.7354 41.2781 81.9355 40.8543 80.9172Z" fill="white"/>
<path d="M62.8905 67.6978C61.6611 67.908 60.687 68.4852 60.5215 69.288C60.2411 70.6509 62.486 70.0097 64.0892 71.2921C65.6929 72.5747 68.5385 71.4525 68.5385 70.731C68.5385 70.276 68.2824 69.5023 67.5305 68.8317C67.0231 69.1206 66.4375 69.2877 65.8126 69.2877C64.5892 69.2877 63.5132 68.6533 62.8905 67.6978Z" fill="white"/>
<path d="M15.7878 79.8701C15.5074 81.2331 17.7523 80.5919 19.3555 81.8742C20.9592 83.1568 23.8048 82.0347 23.8048 81.3131C23.8048 80.5916 23.1636 79.0685 20.9187 78.4271C18.6744 77.7859 16.0688 78.5074 15.7878 79.8701Z" fill="white"/>
<path d="M62.8623 88.7548C60.8561 89.1903 59.9325 92.1069 60.4924 92.5622C61.0523 93.017 62.6391 93.4795 64.5524 92.142C66.4651 90.8041 67.5483 88.3269 66.6676 87.2497C65.7869 86.1725 64.8689 88.3192 62.8623 88.7548Z" fill="white"/>
<path d="M69.6602 21.0663C69.949 21.0663 70.2333 21.1183 70.5053 21.22C71.3668 21.543 71.9337 22.3114 72.0445 23.1664C72.3582 22.9651 74.5104 21.5485 74.2504 20.7864C73.9695 19.9646 72.4866 20.1449 70.8834 19.0225C69.2797 17.9003 67.2556 18.6016 67.0353 19.8243C66.8706 20.7361 66.9521 21.4473 67.5361 22.3484C67.9485 21.5709 68.767 21.0663 69.6602 21.0663Z" fill="white"/>
<path d="M34.4918 34.2796C34.4918 34.2796 33.316 37.0184 34.0142 37.5346C34.1501 37.6351 34.3028 37.6772 34.4738 37.6818C34.4961 37.2977 34.5221 36.9064 34.5558 36.5004C34.6578 35.2637 35.71 34.2945 36.9505 34.2945C37.0171 34.2945 37.0835 34.2971 37.1506 34.3027C37.7908 34.3556 38.3723 34.655 38.7872 35.1449C39.1504 35.5735 39.3485 36.1026 39.357 36.6562C40.351 36.0769 40.8522 35.0054 40.495 34.2207C39.9811 33.0898 39.3093 32.5066 37.4334 32.0499C35.557 31.5929 34.4918 34.2796 34.4918 34.2796Z" fill="white"/>
<path d="M54.2143 62.4106C53.9168 66.7801 52.0128 85.2553 41.3772 99.4229L42.147 100C54.5205 83.4831 55.2213 61.5299 55.23 61.4871L54.2687 61.456V61.4556C54.2682 61.4565 54.2581 61.7867 54.2143 62.4106Z" fill="white"/>
<path d="M66.5692 9.63338C66.5692 6.56166 66.416 3.34469 66.0688 0L65.1118 0.099328C65.4557 3.40962 65.6067 6.59341 65.6067 9.63338C65.607 16.9062 64.74 23.3539 63.5718 28.7426C64.0206 28.2462 64.46 27.7226 64.8785 27.1666C65.8694 22.0984 66.5688 16.1994 66.5692 9.63338Z" fill="white"/>
<path d="M61.341 37.0161C60.3823 39.9601 59.4374 42.28 58.7197 43.8863C58.338 44.7408 58.0206 45.3933 57.7993 45.8308C57.7651 45.8983 57.7344 45.9587 57.705 46.0157L58.2632 46.9383L58.2955 46.9563C58.3077 46.9328 60.5196 42.9863 62.6529 36.0601C62.5949 36.1043 62.5391 36.1495 62.4807 36.1938C62.0932 36.4845 61.7123 36.7582 61.341 37.0161Z" fill="white"/>
<path d="M51.3996 35.3952C54.358 34.9711 56.4124 32.2291 55.9884 29.2706C55.5643 26.3122 52.8222 24.2578 49.8638 24.6818C46.9054 25.1059 44.8509 27.848 45.275 30.8064C45.6991 33.7648 48.4411 35.8193 51.3996 35.3952Z" fill="white"/>
<path d="M46.1868 54.7383L41.1329 78.989C40.7974 80.597 41.8294 82.1713 43.4369 82.5063C45.0444 82.8414 46.6197 81.8103 46.9547 80.2021L51.7412 57.2357C52.4918 58.6414 54.2201 59.2261 55.6756 58.537V58.5363L62.8061 55.1584V65.801C62.8061 67.4609 64.152 68.807 65.8124 68.807C67.4728 68.807 68.8187 67.4609 68.8187 65.801V50.4085C68.8187 49.3734 68.2944 48.4212 67.4199 47.8678C66.5457 47.3144 65.4608 47.2483 64.5255 47.6915L58.1083 50.731C57.8866 50.0566 57.7009 49.389 57.5407 48.731C52.9993 50.9936 47.8956 51.4754 45.3664 51.5824C45.5964 52.6177 45.8662 53.6755 46.1868 54.7383Z" fill="white"/>
<path d="M37.1109 34.7826C36.0522 34.6948 35.1224 35.4822 35.0346 36.5409C34.9346 37.7463 34.8877 38.8168 34.8872 39.7709C34.8971 41.9544 35.107 43.5249 35.6857 44.8205C35.9793 45.4627 36.3983 46.0567 36.9967 46.493C37.5787 46.9256 38.3139 47.1399 38.9669 47.1399C38.9791 47.1399 38.9912 47.1399 39.0034 47.1399C40.4022 47.107 41.3936 46.4814 42.3104 45.8203C43.0155 45.2885 43.673 44.669 44.2714 44.0396C44.3828 45.5331 44.5754 47.2977 44.8999 49.1991C47.1863 49.1287 52.7355 48.6582 57.0566 46.2775C56.6066 43.314 56.6795 40.7512 56.8113 39.1757C57.932 38.6083 59.9472 37.4945 62.1911 35.8098C65.544 33.2833 69.4574 29.4656 71.4618 24.148C71.8348 23.1531 71.3307 22.0439 70.3358 21.6708C69.3408 21.2978 68.2318 21.8019 67.8588 22.7969C66.2561 27.0992 62.8965 30.4733 59.8789 32.7335C58.3753 33.8636 56.9698 34.715 55.951 35.2768C55.4423 35.5578 55.0299 35.7665 54.7504 35.9026C54.6903 35.9317 54.6381 35.9568 54.5912 35.9791L45.7104 37.2519C45.6033 37.2673 45.5009 37.2932 45.4013 37.3255C44.8898 37.4034 44.4107 37.684 44.0973 38.1465C44.0973 38.1465 44.0879 38.1598 44.0617 38.1978C43.8654 38.4835 42.8546 39.9118 41.6656 41.1937C41.0746 41.8339 40.4349 42.435 39.8952 42.8198C39.6271 43.0126 39.3861 43.1493 39.2184 43.2204C39.2091 43.2245 39.2002 43.2284 39.1913 43.232C39.1256 43.0918 39.04 42.8638 38.9686 42.5336C38.8324 41.9294 38.7341 41.0095 38.735 39.7711C38.735 38.9445 38.7769 37.9767 38.8695 36.8589C38.9575 35.8002 38.1698 34.8704 37.1109 34.7826Z" fill="white"/>
<path d="M28.2856 63.3955C28.1057 64.7584 29.5449 64.1173 30.5728 65.3996C31.6005 66.6822 33.4249 65.56 33.4249 64.8385C33.4249 64.117 33.0139 62.5939 31.5748 61.9525C30.1358 61.3113 28.4655 62.0328 28.2856 63.3955Z" fill="white"/>
<path d="M78.4376 40.5836C77.2919 39.8236 77.2361 41.3982 75.6324 41.7585C74.0287 42.119 74.2358 44.2508 74.8842 44.5678C75.5323 44.8845 77.0817 45.184 78.2897 44.1726C79.498 43.1613 79.5829 41.3438 78.4376 40.5836Z" fill="white"/>
<path d="M77.5648 9.67276C78.3681 9.22687 79.8648 7.92598 79.8811 6.27108C79.897 4.61689 78.283 3.60197 76.6781 4.28692C75.073 4.97188 76.4855 5.83408 75.5554 7.52531C74.6259 9.21677 76.7613 10.1187 77.5648 9.67276Z" fill="white"/>
<path d="M17.7893 39.9254C17.1176 40.1883 15.8485 41.1262 15.7756 42.7001C15.7022 44.2737 16.9829 45.5664 18.3177 45.2376C19.6528 44.9086 18.531 43.8018 19.3512 42.3773C20.171 40.9528 18.4611 39.6625 17.7893 39.9254Z" fill="white"/>
<path d="M89.4594 55.0773C88.7877 55.3401 87.5186 56.2781 87.4457 57.8519C87.3723 59.4253 88.653 60.718 89.9878 60.3895C91.3228 60.0605 90.2011 58.9537 91.0213 57.5292C91.8411 56.1047 90.1312 54.8144 89.4594 55.0773Z" fill="white"/>
<path d="M77.0838 59.5778C76.6649 60.8705 77.9222 61.7433 79.7741 62.6165C81.6253 63.4896 82.4985 61.0444 81.3453 59.4027C80.1926 57.761 78.935 57.7788 78.446 57.901C77.9571 58.0234 77.503 58.2853 77.0838 59.5778Z" fill="white"/>
<path d="M57.8921 9.55501C59.5465 8.35153 57.8873 6.5516 55.9202 6.8277C53.9524 7.10355 53.3502 8.18438 53.2145 8.65432C53.0789 9.12451 53.0796 9.625 53.9774 10.5401C54.875 11.4552 56.2381 10.7585 57.8921 9.55501Z" fill="white"/>
<path d="M30.9598 15.8998C33.3648 15.6593 32.7636 12.653 30.599 11.691C28.4345 10.729 27.1718 11.5106 26.751 11.9315C26.3301 12.3524 26.0294 12.8935 26.3902 14.4568C26.751 16.0201 28.5547 16.1403 30.9598 15.8998Z" fill="white"/>
<path d="M45.5066 19.4391C47.2183 20.2999 48.093 18.0327 47.0531 16.4694C46.0131 14.9061 44.8359 14.8929 44.3756 14.9958C43.9152 15.0988 43.484 15.333 43.0617 16.5326C42.6389 17.732 43.7947 18.5786 45.5066 19.4391Z" fill="white"/>
<path d="M37.0921 71.356H0.296997V72.4382H37.0921V71.356Z" fill="white"/>
<path d="M38.5352 25.4194H12.9018V26.5017H38.5352V25.4194Z" fill="white"/>
<path d="M99.703 32.1538H74.0701V33.2361H99.703V32.1538Z" fill="white"/>
<path d="M95.5317 69.6724H73.5266V70.7546H95.5317V69.6724Z" fill="white"/>
<path d="M79.8989 80.9761H57.8938V82.0583H79.8989V80.9761Z" fill="white"/>
</g>
<defs>
<clipPath id="clip0">
<rect width="100" height="100" fill="white"/>
</clipPath>
</defs>
</svg>
