<svg width="100" height="100" viewBox="0 0 100 100" fill="none" xmlns="http://www.w3.org/2000/svg">
<path d="M27.8 62.9002C27.8 62.9002 35.9 55.7002 35.9 46.1002C35.9 46.1002 29.5 50.9002 23.7 43.3002C20.2 38.5002 16.1 35.2002 15.8 35.0002C14.9 34.3002 13.7 34.5002 13 35.3002C12.3 36.2002 12.5 37.4002 13.3 38.1002C13.4 38.1002 16.1 40.4002 18.9 43.7002L20.6 45.9002C21.9 47.8002 23.9 49.7002 23.9 52.0002V55.5002C23.9 57.8002 21.8 59.8002 20.5 61.7002C19.8 62.5002 19.3 63.2002 19.1 63.5002C16.3 66.9002 13.4 69.2002 13.3 69.3002C12.4 70.0002 12.3 71.2002 13 72.1002C13.4 72.6002 14 72.9002 14.6 72.9002C15 72.9002 15.5 72.8002 15.8 72.5002C16.1 72.0002 23.5 67.4002 27.8 62.9002ZM50.3 30.6002C54.3 30.6002 57.5 27.4002 57.5 23.4002C57.5 19.4002 54.3 16.2002 50.3 16.2002C46.3 16.2002 43.1 19.4002 43.1 23.4002C43.2 27.4002 46.4 30.6002 50.3 30.6002ZM34.4 40.5002C34.4 38.1002 32.4 36.1002 30 36.1002C27.6 36.1002 25.6 38.1002 25.6 40.5002C25.6 42.9002 27.6 44.9002 30 44.9002C32.4 44.9002 34.4 43.0002 34.4 40.5002ZM86.8 69.1002C86.7 69.1002 83.9 66.7002 81 63.3002C80.8 63.0002 80.3 62.3002 79.6 61.5002C78.2 59.6002 76.2 57.6002 76.2 55.3002V51.8002C76.2 49.6002 78.2 47.6002 79.5 45.7002L81.2 43.5002C84 40.2002 86.7 38.0002 86.8 37.9002C87.7 37.2002 87.8 36.0002 87.1 35.1002C86.4 34.2002 85.2 34.1002 84.3 34.8002C84 35.0002 79.9 38.3002 76.4 43.1002C70.6 50.6002 64.2 45.9002 64.2 45.9002C64.2 55.5002 72.3 62.7002 72.3 62.7002C76.6 67.2002 84 71.8002 84.3 72.1002C84.7 72.4002 85.1 72.5002 85.5 72.5002C86.1 72.5002 86.7 72.2002 87.1 71.7002C87.8 71.1002 87.7 69.8002 86.8 69.1002ZM77.6 76.7002C77.5 76.6002 72.8 72.8002 68.1 67.1002C67.6 66.5002 67.2 65.9002 66.7 65.3002C64.2 62.0002 60.3 58.1002 60.3 54.2002V42.1002C60.3 38.1002 63.3 35.7002 65.3 32.8002L68.5 28.7002C73.1 23.3002 77.5 19.6002 77.6 19.5002C79 18.4002 79.2 16.3002 78.1 14.9002C77 13.5002 74.9 13.3002 73.5 14.4002C73 14.8002 66.1 20.4002 60.2 28.6002C58 30.9002 54.6 33.7002 50.6 33.8002C47.1 34.0002 43.5 32.0002 39.9 28.0002C34.2 20.1002 27.5 14.8002 27 14.4002C25.6 13.3002 23.5 13.5002 22.4 14.9002C21.3 16.3002 21.5 18.4002 22.9 19.5002C23 19.6002 27.4 23.2002 32 28.6002L34.8 32.1002C37 35.1002 40.3 38.0002 40.3 42.1002V54.2002C40.3 58.0002 36.9 61.3002 34.7 64.3002C33.5 65.7002 32.7 66.8002 32.4 67.2002C27.7 72.8002 23.1 76.6002 23 76.7002C21.6 77.8002 21.4 79.9002 22.5 81.3002C23.1 82.1002 24.1 82.5002 25.1 82.5002C25.8 82.5002 26.5 82.3002 27.1 81.8002C27.6 81.4002 33.7 75.8002 39.8 68.4002C41.9 66.0002 45.6 62.7002 50 62.6002C53.8 62.4002 57.6 64.7002 61.5 69.2002C67.6 76.3002 73.1 81.4002 73.6 81.8002C74.2 82.3002 74.9 82.5002 75.6 82.5002C76.6 82.5002 77.5 82.1002 78.2 81.3002C79.2 79.9002 79 77.9002 77.6 76.7002ZM70.1 36.2002C67.7 36.2002 65.7 38.2002 65.7 40.6002C65.7 43.0002 67.7 45.0002 70.1 45.0002C72.5 45.0002 74.5 43.0002 74.5 40.6002C74.5 38.1002 72.5 36.2002 70.1 36.2002Z" fill="white"/>
</svg>
