<svg width="100" height="100" viewBox="0 0 100 100" fill="none" xmlns="http://www.w3.org/2000/svg">
<path d="M73.6112 18.5278H63.1112V5.38889C63.0442 4.73926 62.7388 4.13752 62.254 3.70003C61.7691 3.26254 61.1392 3.02039 60.4862 3.02039C59.8331 3.02039 59.2032 3.26254 58.7184 3.70003C58.2335 4.13752 57.9281 4.73926 57.8612 5.38889V18.5278H42.1389V5.38889C42.072 4.73926 41.7666 4.13752 41.2817 3.70003C40.7969 3.26254 40.167 3.02039 39.5139 3.02039C38.8609 3.02039 38.231 3.26254 37.7461 3.70003C37.2613 4.13752 36.9559 4.73926 36.8889 5.38889V18.5278H26.3889C25.6964 18.5278 25.0323 18.8029 24.5426 19.2926C24.0529 19.7822 23.7778 20.4464 23.7778 21.1389V47.3889C23.7852 52.2563 25.722 56.9223 29.1638 60.364C32.6056 63.8058 37.2715 65.7426 42.1389 65.75H47.3889V69.1667C47.3917 71.7944 48.189 74.3599 49.6763 76.5263C51.1635 78.6927 53.2711 80.3587 55.7223 81.3055C57.1775 81.8689 58.427 82.8613 59.3051 84.1511C60.1832 85.441 60.6484 86.9674 60.6389 88.5278V94.6111C60.7059 95.2607 61.0113 95.8625 61.4961 96.3C61.981 96.7374 62.6109 96.9796 63.2639 96.9796C63.917 96.9796 64.5469 96.7374 65.0317 96.3C65.5166 95.8625 65.822 95.2607 65.8889 94.6111V88.5278C65.8844 85.9039 65.086 83.3428 63.5986 81.1811C62.1113 79.0195 60.0046 77.3586 57.5556 76.4167C56.0982 75.8484 54.8478 74.8509 53.9698 73.5563C53.0918 72.2616 52.6277 70.7309 52.6389 69.1667V65.75H57.8889C62.7564 65.7426 67.4223 63.8058 70.8641 60.364C74.3059 56.9223 76.2427 52.2563 76.25 47.3889V21.1389C76.2501 20.7936 76.1816 20.4518 76.0487 20.1332C75.9157 19.8146 75.7209 19.5255 75.4755 19.2827C75.2301 19.0398 74.9389 18.8481 74.6189 18.7185C74.2989 18.5889 73.9564 18.5241 73.6112 18.5278ZM58.6667 43.6944L50.7778 54.1944C50.5363 54.52 50.2224 54.7849 49.8608 54.9681C49.4992 55.1513 49.0999 55.2478 48.6945 55.25C48.161 55.2304 47.6467 55.046 47.2223 54.7222C46.6986 54.283 46.3553 53.6662 46.2579 52.9897C46.1606 52.3132 46.316 51.6246 46.6945 51.0555L51.4167 44.75H43.4445C42.9585 44.7561 42.4808 44.6234 42.0675 44.3675C41.6542 44.1117 41.3225 43.7433 41.1112 43.3056C40.9003 42.864 40.8097 42.3746 40.8487 41.8868C40.8878 41.399 41.055 40.9302 41.3334 40.5278L49.2223 30.0278C49.6599 29.5371 50.2574 29.2176 50.9084 29.1261C51.5595 29.0345 52.2219 29.1769 52.7778 29.5278C53.3567 29.9557 53.7468 30.5916 53.8659 31.3015C53.9851 32.0114 53.8241 32.7398 53.4167 33.3333L48.6945 39.6111H56.5556C57.0416 39.605 57.5193 39.7377 57.9326 39.9936C58.3459 40.2494 58.6776 40.6178 58.8889 41.0556C59.0745 41.4791 59.1513 41.9424 59.1125 42.4032C59.0737 42.864 58.9205 43.3078 58.6667 43.6944Z" fill="white"/>
</svg>
