<svg width="100" height="100" viewBox="0 0 100 100" fill="none" xmlns="http://www.w3.org/2000/svg">
<path d="M29 22.4V15C29 13.8 28.2 13 27 13H12.4C11.2 13 10.4 13.8 10.4 15V22.4C10.4 23.6 11.2 24.4 12.4 24.4H27.2C28.2 24.4 29 23.6 29 22.4ZM25 20.4H14.4V17H25.2V20.4H25Z" fill="white"/>
<path d="M42.6 24.4H57.4C58.6 24.4 59.4 23.6 59.4 22.4V15C59.4 13.8 58.6 13 57.4 13H42.6C41.4 13 40.6 13.8 40.6 15V22.4C40.6 23.6 41.6 24.4 42.6 24.4ZM44.6 17H55.4V20.4H44.6V17Z" fill="white"/>
<path d="M95.4 4.6001C71.6 4.6001 20.2 4.6001 4.39999 4.6001C3.19999 4.6001 2.39999 5.4001 2.39999 6.6001V85.6001C2.39999 86.8001 3.19999 87.6001 4.39999 87.6001H10.8V93.4001C10.8 94.6001 11.6 95.4001 12.8 95.4001H86.8C88 95.4001 88.8 94.6001 88.8 93.4001V87.6001H95.2C96.4 87.6001 97.2 86.8001 97.2 85.6001V6.6001C97.4 5.6001 96.6 4.6001 95.4 4.6001ZM63.2 53.6001H59.8V42.2001H63.2V53.6001ZM63.2 38.4001H57.8C56.6 38.4001 55.8 39.2001 55.8 40.4001V55.8001C55.8 57.0001 56.6 57.8001 57.8 57.8001H63.2V83.8001H36.8V8.6001H63.2V38.4001ZM32.8 53.6001H29.4V42.2001H32.8V53.6001ZM6.59999 8.6001H33V38.4001H27.6C26.4 38.4001 25.6 39.2001 25.6 40.4001V55.8001C25.6 57.0001 26.4 57.8001 27.6 57.8001H33V83.8001C24.2 83.8001 15 83.8001 6.59999 83.8001V8.6001ZM85 91.4001H15V87.6001C30.4 87.6001 70.4 87.6001 85 87.6001V91.4001ZM67.2 83.6001V8.6001H93.6V38.4001H88C86.8 38.4001 86 39.2001 86 40.4001V55.8001C86 57.0001 86.8 57.8001 88 57.8001H93.4V83.8001C85.2 83.6001 76 83.6001 67.2 83.6001ZM93.4 42.4001V53.8001H90V42.4001H93.4Z" fill="white"/>
<path d="M89.6 22.4V15C89.6 13.8 88.8 13 87.6 13H72.8C71.6 13 70.8 13.8 70.8 15V22.4C70.8 23.6 71.6 24.4 72.8 24.4H87.6C88.8 24.4 89.6 23.6 89.6 22.4ZM85.6 20.4H74.8V17H85.6V20.4Z" fill="white"/>
</svg>
