<svg width="100" height="100" viewBox="0 0 100 100" fill="none" xmlns="http://www.w3.org/2000/svg">
<path d="M34.4461 42.0009C33.3341 42.1599 32.1611 41.8969 31.1881 41.1739C29.2321 39.7219 28.8231 36.9579 30.2751 35.0039L43.7671 16.8359C44.4671 15.8939 45.5121 15.2689 46.6731 15.0999C46.6751 15.0989 46.6791 15.0989 46.6821 15.0989C47.8401 14.9319 49.0151 15.2319 49.9551 15.9339L68.1541 29.5469C70.1041 31.0039 70.5041 33.7689 69.0421 35.7209C67.5831 37.6709 64.8161 38.0669 62.8671 36.6079L48.2121 25.6479L37.3601 40.2629C36.6311 41.2459 35.5691 41.8389 34.4461 42.0009Z" fill="black"/>
<path d="M37.94 85.5209C35.711 85.5209 33.7 83.9849 33.19 81.7169C32.597 79.0909 34.245 76.4819 36.872 75.8869L55.894 71.5999L40.896 56.6009C38.992 54.6979 38.992 51.6109 40.896 49.7059C42.8 47.8019 45.887 47.8029 47.791 49.7059L69.041 70.9589C70.299 72.2139 70.771 74.0549 70.279 75.7619C69.785 77.4659 68.401 78.7699 66.669 79.1619L39.02 85.4009C38.657 85.4829 38.295 85.5209 37.94 85.5209Z" fill="black"/>
<path d="M4.91398 98.35C3.68898 98.35 2.46498 97.883 1.52898 96.953C-0.349021 95.082 -0.356021 92.046 1.51398 90.167L33.357 58.189L40.156 64.959L8.31398 96.937C7.37598 97.878 6.14498 98.35 4.91398 98.35Z" fill="black"/>
<path d="M99.4871 45.8209C98.4551 43.4989 95.7381 42.4539 93.4161 43.4849L76.6661 50.9249L72.2611 41.0149L67.9041 53.8639L70.2761 59.1999L70.3571 59.1629C71.4911 61.2509 74.0561 62.1529 76.2631 61.1719L97.1521 51.8909C99.4731 50.8589 100.519 48.1399 99.4871 45.8209Z" fill="black"/>
<path d="M82.816 13.476C82.951 12.085 83.163 9.58998 83.255 6.80598C83.458 0.844976 75.933 0.503976 72.333 3.49098C68.542 6.63298 61.495 10.969 53.491 8.08998C57.27 13.796 66.915 13.509 75.459 11.125C77.98 10.422 79.043 12.492 79.482 14.056C75.842 15.385 73.239 18.867 73.239 22.967C73.239 28.207 77.49 32.466 82.735 32.466C87.978 32.466 92.23 28.207 92.23 22.967C92.231 17.749 88.022 13.52 82.816 13.476Z" fill="black"/>
</svg>
