<svg width="100" height="100" viewBox="0 0 100 100" fill="none" xmlns="http://www.w3.org/2000/svg">
<g clip-path="url(#clip0)">
<path d="M93.3 6.49998C89.3 3.89998 83.9 4.99998 81 8.79998L80 10.1C79.8 10.4 79.3 10.4 79.1 10.1L77.8 8.49998C74.5 4.29998 68.2 3.79998 64.3 7.69998C61.1 10.8 60.9 15.7 63.2 19.4H68.8L71.4 15C71.7 14.5 72.3 14.2 72.9 14.2C73.5 14.2 74 14.5 74.4 15L79.2 23.1L80.9 20.3C81.2 19.8 81.8 19.5 82.4 19.5H87.2C88.1 19.5 88.9 20.3 88.9 21.2C88.9 22.1 88.1 22.9 87.2 22.9H83.4L80.8 27.3C80.5 27.8 79.9 28.1 79.3 28.1C78.7 28.1 78.2 27.8 77.8 27.3L73 19.2L71.3 22C71 22.5 70.4 22.8 69.8 22.8H65.8L76.9 36.6C78.3 38.3 80.9 38.3 82.3 36.6L95.6 19.9C98.8 15.7 97.9 9.49998 93.3 6.49998Z" fill="white"/>
<path d="M25.5 58.8999L18.2 80.3999L28 79.7999L34 62.1999L30.4 61.4999C28.4 61.0999 26.8 60.1999 25.5 58.8999Z" fill="white"/>
<path d="M48.7568 26.0779C52.9968 25.0495 55.6003 20.7786 54.5719 16.5386C53.5436 12.2986 49.2727 9.69505 45.0327 10.7234C40.7927 11.7518 38.1891 16.0227 39.2175 20.2627C40.2459 24.5027 44.5167 27.1062 48.7568 26.0779Z" fill="white"/>
<path d="M18.1 45.7999C20 46.6999 22.2 45.9999 23.1 44.0999L26.9 36.5999L32.3 34.7999L27.8 50.9999C27.5 52.1999 27.6 53.4999 28.3 54.5999C29 55.6999 30 56.3999 31.2 56.6999L45 59.4999L40.4 70.4999C39.4 72.7999 40.5 75.3999 42.8 76.3999C43.7 76.7999 44.7 76.7999 45.6 76.5999C47 76.2999 48.1 75.2999 48.7 73.8999L55.4 57.7999C55.9 56.5999 55.8 55.0999 55.2 53.9999C54.6 52.7999 53.4 51.9999 52.1 51.6999L42.5 49.6999L46.3 39.4999L50.9 45.4999C51.8 46.6999 53.3 47.1999 54.8 46.8999C55.1 46.7999 55.4 46.6999 55.8 46.4999L63.7 42.0999C65.5 41.0999 66.2 38.7999 65.1 36.9999C64.1 35.1999 61.8 34.4999 60 35.5999L55 38.3999L50.9 33.0999C49.7 31.4999 48 30.2999 46.2 29.6999L38.9 27.0999C36.8 26.2999 34.4 26.2999 32.2 26.9999L23.1 29.9999C22.1 30.2999 21.4 30.9999 20.9 31.8999L16.4 40.7999C15.5 42.5999 16.2 44.8999 18.1 45.7999Z" fill="white"/>
<path d="M89.1 45.2C88.8 43.8 87.4 43 86 43.3L66.5 48.6C65.2 49 64.4 50.3 64.7 51.6L65.4 54.9C65.7 56.2 67 57.1 68.3 56.8L73.8 55.8L76.1 81.6L6.69999 86C4.29999 86.1 2.39999 88.2 2.49999 90.6C2.59999 93 4.59999 95 6.99999 95H81.4C82.7 95 83.9 94.5 84.7 93.5C85.6 92.6 86 91.3 85.9 90.1L82.7 54.4L88.2 53.4C89.6 53.2 90.5 51.8 90.2 50.4L89.1 45.2Z" fill="white"/>
</g>
<defs>
<clipPath id="clip0">
<rect width="100" height="100" fill="white"/>
</clipPath>
</defs>
</svg>
