<svg width="100" height="100" viewBox="0 0 100 100" fill="none" xmlns="http://www.w3.org/2000/svg">
<g clip-path="url(#clip0)">
<path d="M70.791 73.3309C72.66 74.0449 73.896 75.8399 73.896 77.8429C73.896 80.5099 71.734 82.6709 69.068 82.6709H48.89C46.223 82.6709 44.062 80.5099 44.062 77.8429C44.062 75.1759 46.223 73.0139 48.89 73.0139H61.998C61.529 72.8339 61.059 72.6599 60.588 72.4879C61.666 72.2499 62.637 71.6669 63.352 70.8259C65.863 71.5619 68.344 72.3969 70.791 73.3309Z" fill="black"/>
<path d="M63.1461 65.6389C62.2241 66.2409 61.2281 66.7229 60.1851 67.0769L52.7241 69.6039L58.1771 71.4519C60.3311 72.1819 62.6711 71.0279 63.4021 68.8729C63.7641 67.8059 63.6721 66.6359 63.1461 65.6389Z" fill="black"/>
<path d="M44.1791 57.0229L43.8771 57.9089L49.8071 59.9189L41.4091 62.7649C40.5231 63.0649 39.7381 63.6049 39.1431 64.3249C36.6721 62.4389 35.0101 59.6849 34.4931 56.6219C33.3661 49.9459 37.8631 43.6199 44.5411 42.4929H57.9911C62.4401 43.2439 66.1161 46.3769 67.5631 50.6479C69.7331 57.0589 66.2971 64.0189 59.8851 66.1909L44.3531 71.4529C42.1991 72.1829 39.8601 71.0289 39.1311 68.8739C38.4001 66.7189 39.5551 64.3809 41.7091 63.6509L58.6541 57.9099L58.3531 57.0239L51.2671 59.4259L44.1791 57.0229Z" fill="black"/>
<path d="M61.0199 29.1629C61.0199 23.7759 56.6529 19.4089 51.2679 19.4089C45.8789 19.4089 41.5129 23.7759 41.5129 29.1629C41.5129 34.5499 45.8789 38.9169 51.2679 38.9169C56.6519 38.9169 61.0199 34.5499 61.0199 29.1629Z" fill="black"/>
<path d="M45.743 82.6711H33.463C31.462 82.6711 29.666 81.4351 28.951 79.5651C28.002 77.0741 29.249 74.2821 31.743 73.3321C34.187 72.3981 36.67 71.5621 39.18 70.8261C40.523 72.4041 42.691 73.0041 44.653 72.3401L51.268 70.1001L57.11 72.0791H53.641H48.891C45.708 72.0791 43.128 74.6601 43.128 77.8441C43.127 79.7901 44.109 81.6061 45.743 82.6711Z" fill="black"/>
</g>
<defs>
<clipPath id="clip0">
<rect width="100" height="100" fill="white"/>
</clipPath>
</defs>
</svg>
