<svg width="100" height="100" viewBox="0 0 100 100" fill="none" xmlns="http://www.w3.org/2000/svg">
<path d="M94.434 16.11C93.437 15.378 92.042 15.556 91.261 16.515L73.569 38.224L56.309 29.167C55.454 28.718 49.96 24.788 49.166 24.152L31.05 9.62902C29.427 8.32802 27.13 8.40603 25.612 9.74603C24.721 10.533 5.83299 35.79 5.83299 35.79C5.10299 36.783 5.27599 38.173 6.22799 38.957C7.18199 39.743 8.58499 39.643 9.41899 38.73L27.978 18.385L40.219 29.799L40.322 32.74C40.447 36.303 42.587 39.484 45.84 40.942C49.46 42.565 51.363 46.578 50.329 50.407L47.63 60.403C47.347 61.451 47.576 64.456 47.665 65.008L50.926 85.201L29.108 86.393C27.918 86.459 26.96 87.384 26.869 88.573C26.764 89.945 27.841 91.113 29.216 91.127C29.216 91.127 54.716 91.344 54.91 91.296C56.34 91.034 57.392 89.73 57.271 88.225L55.539 66.812C57.48 65.998 59.994 64.794 60.722 63.755C62.632 61.027 63.128 53.832 62.522 50.557C62.15 48.548 61.01 45.208 59.713 41.777L73.071 47.559C75.167 48.466 77.604 47.557 78.595 45.5C78.865 44.939 95.005 19.248 95.005 19.248C95.678 18.217 95.428 16.839 94.434 16.11Z" fill="white"/>
<path d="M46.524 67.355C42.327 67.355 38.925 70.757 38.925 74.954C38.925 79.151 42.327 82.553 46.524 82.553C47.54 82.553 48.507 82.35 49.393 81.988L47.034 67.381C46.865 67.369 46.696 67.355 46.524 67.355Z" fill="white"/>
</svg>
