<svg width="75" height="75" viewBox="0 0 75 75" fill="none" xmlns="http://www.w3.org/2000/svg">
<path d="M67.2905 22.2237C67.3381 22.8899 67.3381 23.5563 67.3381 24.2225C67.3381 44.5428 51.8719 67.9566 23.6041 67.9566C14.8953 67.9566 6.80522 65.4343 0 61.0563C1.23735 61.199 2.42695 61.2466 3.71191 61.2466C10.8977 61.2466 17.5126 58.8196 22.795 54.6794C16.0374 54.5366 10.3743 50.1108 8.42314 44.0194C9.375 44.1621 10.3267 44.2573 11.3262 44.2573C12.7062 44.2573 14.0864 44.0669 15.3712 43.7339C8.32808 42.3062 3.04556 36.1197 3.04556 28.6482V28.458C5.0918 29.6001 7.47144 30.3139 9.99346 30.409C5.85322 27.6488 3.14077 22.9376 3.14077 17.6076C3.14077 14.7523 3.90205 12.1349 5.23462 9.85064C12.8013 19.178 24.175 25.2693 36.9287 25.9356C36.6908 24.7935 36.548 23.6039 36.548 22.4142C36.548 13.9433 43.4008 7.04297 51.9192 7.04297C56.3449 7.04297 60.3423 8.89893 63.1501 11.897C66.624 11.2308 69.9552 9.94585 72.9059 8.18511C71.7636 11.7543 69.3366 14.7524 66.1482 16.6559C69.2416 16.3229 72.2396 15.4661 74.9997 14.2765C72.9062 17.3221 70.2886 20.0345 67.2905 22.2237Z" fill="#FCB74A"/>
</svg>
